<svg xmlns="http://www.w3.org/2000/svg" viewBox="0 0 1000 500" width="1000" height="500" font-family="DejaVu Sans, Helvetica, Arial, sans-serif">
<rect width="1000" height="500" fill="#ffffff"/>
<text x="20" y="34" font-size="17" fill="#0b0b0b">Outrunner 12N14P: 12 stator teeth, 14 magnets</text>
<circle cx="235" cy="250" r="200" fill="#f4f3f0"/>
<path d="M238.4,54.0 A196,196 0 0 1 316.9,72.0 L305.2,97.4 A168,168 0 0 0 237.9,82.0 Z" fill="#52514e" stroke="#ffffff" stroke-width="2"/>
<text x="275.5" y="77.6" font-size="13" text-anchor="middle" fill="#ffffff">N</text>
<path d="M323.1,74.9 A196,196 0 0 1 386.1,125.1 L364.5,143.0 A168,168 0 0 0 310.5,99.9 Z" fill="#c3c2b7" stroke="#ffffff" stroke-width="2"/>
<text x="348.5" y="112.7" font-size="13" text-anchor="middle" fill="#0b0b0b">S</text>
<path d="M390.3,130.5 A196,196 0 0 1 425.3,203.1 L398.1,209.8 A168,168 0 0 0 368.2,147.6 Z" fill="#52514e" stroke="#ffffff" stroke-width="2"/>
<text x="399.0" y="176.0" font-size="13" text-anchor="middle" fill="#ffffff">N</text>
<path d="M426.8,209.7 A196,196 0 0 1 426.8,290.3 L399.4,284.5 A168,168 0 0 0 399.4,215.5 Z" fill="#c3c2b7" stroke="#ffffff" stroke-width="2"/>
<text x="417.0" y="255.0" font-size="13" text-anchor="middle" fill="#0b0b0b">S</text>
<path d="M425.3,296.9 A196,196 0 0 1 390.3,369.5 L368.2,352.4 A168,168 0 0 0 398.1,290.2 Z" fill="#52514e" stroke="#ffffff" stroke-width="2"/>
<text x="399.0" y="334.0" font-size="13" text-anchor="middle" fill="#ffffff">N</text>
<path d="M386.1,374.9 A196,196 0 0 1 323.1,425.1 L310.5,400.1 A168,168 0 0 0 364.5,357.0 Z" fill="#c3c2b7" stroke="#ffffff" stroke-width="2"/>
<text x="348.5" y="397.3" font-size="13" text-anchor="middle" fill="#0b0b0b">S</text>
<path d="M316.9,428.0 A196,196 0 0 1 238.4,446.0 L237.9,418.0 A168,168 0 0 0 305.2,402.6 Z" fill="#52514e" stroke="#ffffff" stroke-width="2"/>
<text x="275.5" y="432.4" font-size="13" text-anchor="middle" fill="#ffffff">N</text>
<path d="M231.6,446.0 A196,196 0 0 1 153.1,428.0 L164.8,402.6 A168,168 0 0 0 232.1,418.0 Z" fill="#c3c2b7" stroke="#ffffff" stroke-width="2"/>
<text x="194.5" y="432.4" font-size="13" text-anchor="middle" fill="#0b0b0b">S</text>
<path d="M146.9,425.1 A196,196 0 0 1 83.9,374.9 L105.5,357.0 A168,168 0 0 0 159.5,400.1 Z" fill="#52514e" stroke="#ffffff" stroke-width="2"/>
<text x="121.5" y="397.3" font-size="13" text-anchor="middle" fill="#ffffff">N</text>
<path d="M79.7,369.5 A196,196 0 0 1 44.7,296.9 L71.9,290.2 A168,168 0 0 0 101.8,352.4 Z" fill="#c3c2b7" stroke="#ffffff" stroke-width="2"/>
<text x="71.0" y="334.0" font-size="13" text-anchor="middle" fill="#0b0b0b">S</text>
<path d="M43.2,290.3 A196,196 0 0 1 43.2,209.7 L70.6,215.5 A168,168 0 0 0 70.6,284.5 Z" fill="#52514e" stroke="#ffffff" stroke-width="2"/>
<text x="53.0" y="255.0" font-size="13" text-anchor="middle" fill="#ffffff">N</text>
<path d="M44.7,203.1 A196,196 0 0 1 79.7,130.5 L101.8,147.6 A168,168 0 0 0 71.9,209.8 Z" fill="#c3c2b7" stroke="#ffffff" stroke-width="2"/>
<text x="71.0" y="176.0" font-size="13" text-anchor="middle" fill="#0b0b0b">S</text>
<path d="M83.9,125.1 A196,196 0 0 1 146.9,74.9 L159.5,99.9 A168,168 0 0 0 105.5,143.0 Z" fill="#52514e" stroke="#ffffff" stroke-width="2"/>
<text x="121.5" y="112.7" font-size="13" text-anchor="middle" fill="#ffffff">N</text>
<path d="M153.1,72.0 A196,196 0 0 1 231.6,54.0 L232.1,82.0 A168,168 0 0 0 164.8,97.4 Z" fill="#c3c2b7" stroke="#ffffff" stroke-width="2"/>
<text x="194.5" y="77.6" font-size="13" text-anchor="middle" fill="#0b0b0b">S</text>
<circle cx="235" cy="250" r="58" fill="#8d8c87"/>
<path d="M219.3,100.8 A150,150 0 0 1 250.7,100.8 L240.9,194.3 A56,56 0 0 0 229.1,194.3 Z" fill="#8d8c87" stroke="#ffffff" stroke-width="2"/>
<path d="M199.0,94.1 A160,160 0 0 1 271.0,94.1 L268.3,105.8 A148,148 0 0 0 201.7,105.8 Z" fill="#8d8c87" stroke="#ffffff" stroke-width="2"/>
<path d="M208.3,112.6 A140,140 0 0 1 261.7,112.6 L249.9,173.4 A78,78 0 0 0 220.1,173.4 Z" fill="#2a78d6" stroke="#ffffff" stroke-width="2"/>
<text x="235.0" y="146.0" font-size="16" font-weight="bold" text-anchor="middle" fill="#ffffff">A</text>
<path d="M296.0,113.0 A150,150 0 0 1 323.2,128.6 L267.9,204.7 A56,56 0 0 0 257.8,198.8 Z" fill="#8d8c87" stroke="#ffffff" stroke-width="2"/>
<path d="M281.8,97.0 A160,160 0 0 1 344.1,133.0 L335.9,141.8 A148,148 0 0 0 278.3,108.5 Z" fill="#8d8c87" stroke="#ffffff" stroke-width="2"/>
<path d="M280.6,117.6 A140,140 0 0 1 326.8,144.3 L286.2,191.1 A78,78 0 0 0 260.4,176.2 Z" fill="#2a78d6" stroke="#ffffff" stroke-width="2"/>
<text x="290.0" y="160.7" font-size="16" font-weight="bold" text-anchor="middle" fill="#ffffff">A</text>
<path d="M356.4,161.8 A150,150 0 0 1 372.0,189.0 L286.2,227.2 A56,56 0 0 0 280.3,217.1 Z" fill="#8d8c87" stroke="#ffffff" stroke-width="2"/>
<path d="M352.0,140.9 A160,160 0 0 1 388.0,203.2 L376.5,206.7 A148,148 0 0 0 343.2,149.1 Z" fill="#8d8c87" stroke="#ffffff" stroke-width="2"/>
<path d="M340.7,158.2 A140,140 0 0 1 367.4,204.4 L308.8,224.6 A78,78 0 0 0 293.9,198.8 Z" fill="#eb6834" stroke="#ffffff" stroke-width="2"/>
<text x="330.3" y="201.0" font-size="16" font-weight="bold" text-anchor="middle" fill="#ffffff">B</text>
<path d="M384.2,234.3 A150,150 0 0 1 384.2,265.7 L290.7,255.9 A56,56 0 0 0 290.7,244.1 Z" fill="#8d8c87" stroke="#ffffff" stroke-width="2"/>
<path d="M390.9,214.0 A160,160 0 0 1 390.9,286.0 L379.2,283.3 A148,148 0 0 0 379.2,216.7 Z" fill="#8d8c87" stroke="#ffffff" stroke-width="2"/>
<path d="M372.4,223.3 A140,140 0 0 1 372.4,276.7 L311.6,264.9 A78,78 0 0 0 311.6,235.1 Z" fill="#eb6834" stroke="#ffffff" stroke-width="2"/>
<text x="345.0" y="256.0" font-size="16" font-weight="bold" text-anchor="middle" fill="#ffffff">B</text>
<path d="M372.0,311.0 A150,150 0 0 1 356.4,338.2 L280.3,282.9 A56,56 0 0 0 286.2,272.8 Z" fill="#8d8c87" stroke="#ffffff" stroke-width="2"/>
<path d="M388.0,296.8 A160,160 0 0 1 352.0,359.1 L343.2,350.9 A148,148 0 0 0 376.5,293.3 Z" fill="#8d8c87" stroke="#ffffff" stroke-width="2"/>
<path d="M367.4,295.6 A140,140 0 0 1 340.7,341.8 L293.9,301.2 A78,78 0 0 0 308.8,275.4 Z" fill="#1baf7a" stroke="#ffffff" stroke-width="2"/>
<text x="330.3" y="311.0" font-size="16" font-weight="bold" text-anchor="middle" fill="#ffffff">C</text>
<path d="M323.2,371.4 A150,150 0 0 1 296.0,387.0 L257.8,301.2 A56,56 0 0 0 267.9,295.3 Z" fill="#8d8c87" stroke="#ffffff" stroke-width="2"/>
<path d="M344.1,367.0 A160,160 0 0 1 281.8,403.0 L278.3,391.5 A148,148 0 0 0 335.9,358.2 Z" fill="#8d8c87" stroke="#ffffff" stroke-width="2"/>
<path d="M326.8,355.7 A140,140 0 0 1 280.6,382.4 L260.4,323.8 A78,78 0 0 0 286.2,308.9 Z" fill="#1baf7a" stroke="#ffffff" stroke-width="2"/>
<text x="290.0" y="351.3" font-size="16" font-weight="bold" text-anchor="middle" fill="#ffffff">C</text>
<path d="M250.7,399.2 A150,150 0 0 1 219.3,399.2 L229.1,305.7 A56,56 0 0 0 240.9,305.7 Z" fill="#8d8c87" stroke="#ffffff" stroke-width="2"/>
<path d="M271.0,405.9 A160,160 0 0 1 199.0,405.9 L201.7,394.2 A148,148 0 0 0 268.3,394.2 Z" fill="#8d8c87" stroke="#ffffff" stroke-width="2"/>
<path d="M261.7,387.4 A140,140 0 0 1 208.3,387.4 L220.1,326.6 A78,78 0 0 0 249.9,326.6 Z" fill="#2a78d6" stroke="#ffffff" stroke-width="2"/>
<text x="235.0" y="366.0" font-size="16" font-weight="bold" text-anchor="middle" fill="#ffffff">A</text>
<path d="M174.0,387.0 A150,150 0 0 1 146.8,371.4 L202.1,295.3 A56,56 0 0 0 212.2,301.2 Z" fill="#8d8c87" stroke="#ffffff" stroke-width="2"/>
<path d="M188.2,403.0 A160,160 0 0 1 125.9,367.0 L134.1,358.2 A148,148 0 0 0 191.7,391.5 Z" fill="#8d8c87" stroke="#ffffff" stroke-width="2"/>
<path d="M189.4,382.4 A140,140 0 0 1 143.2,355.7 L183.8,308.9 A78,78 0 0 0 209.6,323.8 Z" fill="#2a78d6" stroke="#ffffff" stroke-width="2"/>
<text x="180.0" y="351.3" font-size="16" font-weight="bold" text-anchor="middle" fill="#ffffff">A</text>
<path d="M113.6,338.2 A150,150 0 0 1 98.0,311.0 L183.8,272.8 A56,56 0 0 0 189.7,282.9 Z" fill="#8d8c87" stroke="#ffffff" stroke-width="2"/>
<path d="M118.0,359.1 A160,160 0 0 1 82.0,296.8 L93.5,293.3 A148,148 0 0 0 126.8,350.9 Z" fill="#8d8c87" stroke="#ffffff" stroke-width="2"/>
<path d="M129.3,341.8 A140,140 0 0 1 102.6,295.6 L161.2,275.4 A78,78 0 0 0 176.1,301.2 Z" fill="#eb6834" stroke="#ffffff" stroke-width="2"/>
<text x="139.7" y="311.0" font-size="16" font-weight="bold" text-anchor="middle" fill="#ffffff">B</text>
<path d="M85.8,265.7 A150,150 0 0 1 85.8,234.3 L179.3,244.1 A56,56 0 0 0 179.3,255.9 Z" fill="#8d8c87" stroke="#ffffff" stroke-width="2"/>
<path d="M79.1,286.0 A160,160 0 0 1 79.1,214.0 L90.8,216.7 A148,148 0 0 0 90.8,283.3 Z" fill="#8d8c87" stroke="#ffffff" stroke-width="2"/>
<path d="M97.6,276.7 A140,140 0 0 1 97.6,223.3 L158.4,235.1 A78,78 0 0 0 158.4,264.9 Z" fill="#eb6834" stroke="#ffffff" stroke-width="2"/>
<text x="125.0" y="256.0" font-size="16" font-weight="bold" text-anchor="middle" fill="#ffffff">B</text>
<path d="M98.0,189.0 A150,150 0 0 1 113.6,161.8 L189.7,217.1 A56,56 0 0 0 183.8,227.2 Z" fill="#8d8c87" stroke="#ffffff" stroke-width="2"/>
<path d="M82.0,203.2 A160,160 0 0 1 118.0,140.9 L126.8,149.1 A148,148 0 0 0 93.5,206.7 Z" fill="#8d8c87" stroke="#ffffff" stroke-width="2"/>
<path d="M102.6,204.4 A140,140 0 0 1 129.3,158.2 L176.1,198.8 A78,78 0 0 0 161.2,224.6 Z" fill="#1baf7a" stroke="#ffffff" stroke-width="2"/>
<text x="139.7" y="201.0" font-size="16" font-weight="bold" text-anchor="middle" fill="#ffffff">C</text>
<path d="M146.8,128.6 A150,150 0 0 1 174.0,113.0 L212.2,198.8 A56,56 0 0 0 202.1,204.7 Z" fill="#8d8c87" stroke="#ffffff" stroke-width="2"/>
<path d="M125.9,133.0 A160,160 0 0 1 188.2,97.0 L191.7,108.5 A148,148 0 0 0 134.1,141.8 Z" fill="#8d8c87" stroke="#ffffff" stroke-width="2"/>
<path d="M143.2,144.3 A140,140 0 0 1 189.4,117.6 L209.6,176.2 A78,78 0 0 0 183.8,191.1 Z" fill="#1baf7a" stroke="#ffffff" stroke-width="2"/>
<text x="180.0" y="160.7" font-size="16" font-weight="bold" text-anchor="middle" fill="#ffffff">C</text>
<text x="235" y="255" font-size="12" text-anchor="middle" fill="#ffffff">stator</text>
<text x="235" y="482" font-size="12" text-anchor="middle" fill="#52514e">the rotor bell with the magnets turns around the fixed stator</text>
<text x="515" y="34" font-size="17" fill="#0b0b0b">Six-step commutation by the ESC</text>
<line x1="545.0" y1="70" x2="545.0" y2="410" stroke="#e6e5e1" stroke-width="1"/>
<text x="545.0" y="432" font-size="12" text-anchor="middle" fill="#52514e">0°</text>
<text x="580.8" y="64" font-size="12" text-anchor="middle" fill="#52514e">step 1</text>
<line x1="616.7" y1="70" x2="616.7" y2="410" stroke="#e6e5e1" stroke-width="1"/>
<text x="616.7" y="432" font-size="12" text-anchor="middle" fill="#52514e">60°</text>
<text x="652.5" y="64" font-size="12" text-anchor="middle" fill="#52514e">step 2</text>
<line x1="688.3" y1="70" x2="688.3" y2="410" stroke="#e6e5e1" stroke-width="1"/>
<text x="688.3" y="432" font-size="12" text-anchor="middle" fill="#52514e">120°</text>
<text x="724.2" y="64" font-size="12" text-anchor="middle" fill="#52514e">step 3</text>
<line x1="760.0" y1="70" x2="760.0" y2="410" stroke="#e6e5e1" stroke-width="1"/>
<text x="760.0" y="432" font-size="12" text-anchor="middle" fill="#52514e">180°</text>
<text x="795.8" y="64" font-size="12" text-anchor="middle" fill="#52514e">step 4</text>
<line x1="831.7" y1="70" x2="831.7" y2="410" stroke="#e6e5e1" stroke-width="1"/>
<text x="831.7" y="432" font-size="12" text-anchor="middle" fill="#52514e">240°</text>
<text x="867.5" y="64" font-size="12" text-anchor="middle" fill="#52514e">step 5</text>
<line x1="903.3" y1="70" x2="903.3" y2="410" stroke="#e6e5e1" stroke-width="1"/>
<text x="903.3" y="432" font-size="12" text-anchor="middle" fill="#52514e">300°</text>
<text x="939.2" y="64" font-size="12" text-anchor="middle" fill="#52514e">step 6</text>
<line x1="975.0" y1="70" x2="975.0" y2="410" stroke="#e6e5e1" stroke-width="1"/>
<text x="975.0" y="432" font-size="12" text-anchor="middle" fill="#52514e">360°</text>
<text x="760.0" y="456" font-size="13" text-anchor="middle" fill="#52514e">electrical angle (7 electrical revolutions per motor revolution)</text>
<line x1="545" y1="130" x2="975" y2="130" stroke="#52514e" stroke-width="1"/>
<text x="531" y="136" font-size="16" font-weight="bold" text-anchor="end" fill="#0b0b0b">A</text>
<text x="531" y="96" font-size="11" text-anchor="end" fill="#52514e">+</text>
<text x="531" y="172" font-size="11" text-anchor="end" fill="#52514e">−</text>
<line x1="545.0" y1="92.0" x2="616.7" y2="92.0" stroke="#2a78d6" stroke-width="2.5" stroke-linecap="round"/>
<line x1="616.7" y1="92.0" x2="688.3" y2="92.0" stroke="#2a78d6" stroke-width="2.5" stroke-linecap="round"/>
<line x1="688.3" y1="92.0" x2="688.3" y2="130.0" stroke="#2a78d6" stroke-width="2.5"/>
<line x1="688.3" y1="130.0" x2="760.0" y2="130.0" stroke="#2a78d6" stroke-width="2.5" stroke-dasharray="5 5" stroke-linecap="round"/>
<line x1="760.0" y1="130.0" x2="760.0" y2="168.0" stroke="#2a78d6" stroke-width="2.5"/>
<line x1="760.0" y1="168.0" x2="831.7" y2="168.0" stroke="#2a78d6" stroke-width="2.5" stroke-linecap="round"/>
<line x1="831.7" y1="168.0" x2="903.3" y2="168.0" stroke="#2a78d6" stroke-width="2.5" stroke-linecap="round"/>
<line x1="903.3" y1="168.0" x2="903.3" y2="130.0" stroke="#2a78d6" stroke-width="2.5"/>
<line x1="903.3" y1="130.0" x2="975.0" y2="130.0" stroke="#2a78d6" stroke-width="2.5" stroke-dasharray="5 5" stroke-linecap="round"/>
<line x1="545" y1="250" x2="975" y2="250" stroke="#52514e" stroke-width="1"/>
<text x="531" y="256" font-size="16" font-weight="bold" text-anchor="end" fill="#0b0b0b">B</text>
<text x="531" y="216" font-size="11" text-anchor="end" fill="#52514e">+</text>
<text x="531" y="292" font-size="11" text-anchor="end" fill="#52514e">−</text>
<line x1="545.0" y1="288.0" x2="616.7" y2="288.0" stroke="#eb6834" stroke-width="2.5" stroke-linecap="round"/>
<line x1="616.7" y1="288.0" x2="616.7" y2="250.0" stroke="#eb6834" stroke-width="2.5"/>
<line x1="616.7" y1="250.0" x2="688.3" y2="250.0" stroke="#eb6834" stroke-width="2.5" stroke-dasharray="5 5" stroke-linecap="round"/>
<line x1="688.3" y1="250.0" x2="688.3" y2="212.0" stroke="#eb6834" stroke-width="2.5"/>
<line x1="688.3" y1="212.0" x2="760.0" y2="212.0" stroke="#eb6834" stroke-width="2.5" stroke-linecap="round"/>
<line x1="760.0" y1="212.0" x2="831.7" y2="212.0" stroke="#eb6834" stroke-width="2.5" stroke-linecap="round"/>
<line x1="831.7" y1="212.0" x2="831.7" y2="250.0" stroke="#eb6834" stroke-width="2.5"/>
<line x1="831.7" y1="250.0" x2="903.3" y2="250.0" stroke="#eb6834" stroke-width="2.5" stroke-dasharray="5 5" stroke-linecap="round"/>
<line x1="903.3" y1="250.0" x2="903.3" y2="288.0" stroke="#eb6834" stroke-width="2.5"/>
<line x1="903.3" y1="288.0" x2="975.0" y2="288.0" stroke="#eb6834" stroke-width="2.5" stroke-linecap="round"/>
<line x1="545" y1="370" x2="975" y2="370" stroke="#52514e" stroke-width="1"/>
<text x="531" y="376" font-size="16" font-weight="bold" text-anchor="end" fill="#0b0b0b">C</text>
<text x="531" y="336" font-size="11" text-anchor="end" fill="#52514e">+</text>
<text x="531" y="412" font-size="11" text-anchor="end" fill="#52514e">−</text>
<line x1="545.0" y1="370.0" x2="616.7" y2="370.0" stroke="#1baf7a" stroke-width="2.5" stroke-dasharray="5 5" stroke-linecap="round"/>
<line x1="616.7" y1="370.0" x2="616.7" y2="408.0" stroke="#1baf7a" stroke-width="2.5"/>
<line x1="616.7" y1="408.0" x2="688.3" y2="408.0" stroke="#1baf7a" stroke-width="2.5" stroke-linecap="round"/>
<line x1="688.3" y1="408.0" x2="760.0" y2="408.0" stroke="#1baf7a" stroke-width="2.5" stroke-linecap="round"/>
<line x1="760.0" y1="408.0" x2="760.0" y2="370.0" stroke="#1baf7a" stroke-width="2.5"/>
<line x1="760.0" y1="370.0" x2="831.7" y2="370.0" stroke="#1baf7a" stroke-width="2.5" stroke-dasharray="5 5" stroke-linecap="round"/>
<line x1="831.7" y1="370.0" x2="831.7" y2="332.0" stroke="#1baf7a" stroke-width="2.5"/>
<line x1="831.7" y1="332.0" x2="903.3" y2="332.0" stroke="#1baf7a" stroke-width="2.5" stroke-linecap="round"/>
<line x1="903.3" y1="332.0" x2="975.0" y2="332.0" stroke="#1baf7a" stroke-width="2.5" stroke-linecap="round"/>
<text x="975" y="94" font-size="11" text-anchor="end" fill="#52514e">dashed: phase not connected</text>
</svg>