<svg xmlns="http://www.w3.org/2000/svg" width="1027" height="278" viewBox="0 0 1027 278"><g fill="none" fill-rule="evenodd"><polygon fill="#FF7F00" fill-rule="nonzero" points="171.9 0 89.4 218.1 142 218.1 224.5 0"></polygon><line x1="187.3" x2="164.4" y1="143" y2="203.7"></line><line x1="221.6" x2="206" y1="52.2" y2="93.4"></line><path fill="#000000" fill-rule="nonzero" d="M846.9 166.1C846.7 179.6 840.9 192.9 831.3 202.4 822.7 211 811.2 216.1 799.5 218.5 785.3 221.4 770.7 221.2 756.4 219.9 747.3 218.8 738.1 217 729.7 213.2 724 210.6 718.8 206.9 714.8 202.1 705.4 191.8 700.3 178.1 699.2 164.3L747.4 164.3C748.6 170.6 750.8 177 755.5 181.5 761 187.1 769 189.2 776.6 188.9 781.6 188.6 786.7 187.7 790.8 184.7 794.7 181.8 797.8 177.3 797.7 172.3 797.9 166.3 793.8 160.9 788.6 158.3 782.3 155 775.3 153.4 768.4 151.8 755.4 148.8 742.4 145.3 730.6 139 723.9 135.5 717.7 130.9 713.1 124.8 707.8 117.9 705.1 109.2 705.3 100.5 704.9 90.5 708.7 80.7 714.8 72.9 720.1 66.2 727.5 61.4 735.3 58.2 744.9 54.3 755.4 53 765.8 52.4 780.3 51.9 795.1 52.4 808.9 57.2 818 60.3 826.5 65.9 832 73.9 837.4 81.7 840.3 91.1 841.3 100.5L793.4 100.5C792.2 95.8 790.1 91.2 786.4 88 781.4 83.8 774.6 82.7 768.2 82.7 763.7 83 758.8 83.8 755.3 87 751.8 90.1 750.1 95.9 752.9 100 755.8 104.3 761.1 105.6 765.7 107 779.4 110.2 793.3 113.1 806.6 117.7 816.8 121.1 826.8 125.9 834.4 133.7 843.1 142.1 847.1 154.3 846.9 166.1zM315.6 218.1C315.6 163.7 315.6 109.2 315.6 54.8 332.4 54.8 349.2 54.8 366 54.8 366 95.8 366 136.8 366 177.8 392.3 177.8 418.5 177.8 444.8 177.8 444.8 191.2 444.8 204.6 444.8 218.1 401.8 218.2 358.7 218.1 315.6 218.1M641.4 54.9C658.2 54.9 675 54.9 691.8 54.9 691.8 86.7 691.8 118.5 691.8 150.3 691.9 166.6 688.1 183.7 677.7 196.7 671 204.9 662.5 211.9 652.5 215.5 643.2 218.8 633.4 220.3 623.5 220.7 610.6 221.1 597.6 220.3 584.9 218.1 574.5 216.3 564.5 211.7 556.7 204.5 549.1 197.5 542.7 188.8 539.9 178.8 537.4 170 535.4 160.8 535.5 151.6 535.5 135.1 535.5 118.5 535.5 102 552.3 102 569.1 102 585.9 102 585.9 119.6 585.9 137.2 585.9 154.8 585.9 162.4 588 170.4 593.7 175.7 599 181 606.7 182.9 614 182.8 621.4 182.8 629.1 180.6 634.2 175 639.4 169.7 641.1 162 641.2 154.8 641.4 121.4 641.4 88.1 641.4 54.9M863.1 54.8C917.6 54.8 1026.5 54.8 1026.5 54.8L1026.5 218.2 863.1 218.2 863.1 54.8"></path><path fill="#FFFFFF" fill-rule="nonzero" d="M983.9,76.5 C991.9,81.2 998.7,87.9 1004.2,95.4 C1012.8,107.3 1017.3,121.9 1017.4,136.5 C1017.3,148.2 1014.5,159.9 1008.8,170.2 C1002.8,181.4 993.7,190.9 982.7,197.3 C971.6,203.9 958.7,207.4 945.8,207.2 C931.5,207.1 917.2,202.5 905.5,194.2 C897.7,188.7 891.2,181.6 886.1,173.5 C892.6,181.4 900.3,188.2 909.5,192.8 C925.1,201 943.9,202.7 960.8,197.7 C980.9,191.9 997.8,176.5 1005.5,157.1 C1011.6,142 1012.2,124.6 1006.9,109.2 C1002.9,96.3 994.6,84.9 983.9,76.5"></path><path fill="#FF7F00" fill-rule="nonzero" d="M907.8 123C914.6 120.3 922.9 123.9 925.9 130.6 928 135.2 927.4 141 924.4 145.1 920.9 149.9 914.4 152.1 908.8 150.3 901.9 148.5 897.3 140.9 898.8 134 899.5 129 903.1 124.7 907.8 123M972.1 123C978.5 120.6 986.2 123.5 989.5 129.5 992.1 134.2 991.9 140.3 988.8 144.7 985.5 149.6 978.9 152 973.2 150.4 967.3 148.9 962.7 143.2 962.6 137.1 962.3 130.9 966.3 124.9 972.1 123"></path><polygon fill="#000000" fill-rule="nonzero" points="137.6 54.7 93.5 171.4 49.6 54.7 .7 54.7 62.5 218.1 124.5 218.1 186.3 54.7"></polygon><polygon fill="#000000" fill-rule="nonzero" points="399.7 54.8 399.7 95.1 465.4 95.2 465.4 218.2 515.9 218.2 515.8 95.2 586.4 95.2 586.4 54.9"></polygon><g fill="#000000" fill-rule="nonzero" transform="translate(61 228)"><path d="M1.1.9L20 .9C23.7.9 26.5 1.1 28.3 1.4 30.1 1.7 31.8 2.4 33.2 3.3 34.6 4.3 35.9 5.6 36.8 7.2 37.8 8.8 38.2 10.7 38.2 12.7 38.2 14.9 37.6 16.9 36.4 18.8 35.2 20.6 33.6 22 31.6 23 34.5 23.8 36.7 25.3 38.2 27.3 39.7 29.3 40.5 31.7 40.5 34.4 40.5 36.5 40 38.6 39 40.7 38 42.7 36.6 44.3 34.9 45.6 33.2 46.8 31 47.6 28.5 47.8 26.9 48 23.1 48.1 17 48.1L.9 48.1.9.9 1.1.9zM10.6 8.8L10.6 19.7 16.8 19.7C20.5 19.7 22.8 19.6 23.7 19.5 25.3 19.3 26.6 18.7 27.5 17.8 28.4 16.9 28.9 15.6 28.9 14.1 28.9 12.6 28.5 11.5 27.7 10.5 26.9 9.6 25.7 9 24.1 8.8 23.2 8.7 20.4 8.6 16 8.6L10.6 8.6 10.6 8.8zM10.6 27.5L10.6 40.1 19.4 40.1C22.8 40.1 25 40 25.9 39.8 27.3 39.5 28.5 38.9 29.4 37.9 30.3 36.9 30.7 35.6 30.7 33.9 30.7 32.5 30.4 31.3 29.7 30.3 29 29.3 28 28.6 26.7 28.1 25.4 27.6 22.6 27.4 18.3 27.4L10.6 27.4 10.6 27.5zM48.6.9L58.1.9 58.1 26.4C58.1 30.5 58.2 33.1 58.5 34.3 58.9 36.2 59.9 37.8 61.4 38.9 62.9 40 65 40.7 67.7 40.7 70.4 40.7 72.4 40.1 73.8 39 75.2 37.9 76 36.5 76.3 34.9 76.6 33.3 76.7 30.6 76.7 26.9L76.7.8 86.2.8 86.2 25.6C86.2 31.3 85.9 35.3 85.4 37.6 84.9 39.9 83.9 41.9 82.6 43.5 81.3 45.1 79.4 46.4 77 47.3 74.6 48.2 71.7 48.7 67.9 48.7 63.4 48.7 60 48.2 57.7 47.1 55.4 46.1 53.5 44.7 52.2 43 50.8 41.3 50 39.6 49.5 37.8 48.9 35.1 48.6 31.1 48.6 25.8L48.6.9 48.6.9zM93.8 32.7L103.1 31.8C103.7 34.9 104.8 37.2 106.5 38.7 108.2 40.2 110.5 40.9 113.4 40.9 116.5 40.9 118.8 40.3 120.3 39 121.9 37.7 122.6 36.2 122.6 34.4 122.6 33.3 122.3 32.3 121.6 31.6 120.9 30.8 119.8 30.1 118.2 29.6 117.1 29.2 114.5 28.5 110.6 27.5 105.5 26.2 101.9 24.7 99.9 22.8 97 20.2 95.6 17 95.6 13.3 95.6 10.9 96.3 8.7 97.6 6.6 99 4.5 100.9 2.9 103.5 1.8 106.1.7 109.2.2 112.8.2 118.7.2 123.2 1.5 126.2 4.1 129.2 6.7 130.8 10.2 130.9 14.5L121.4 14.9C121 12.5 120.1 10.7 118.8 9.7 117.5 8.7 115.4 8.1 112.8 8.1 110 8.1 107.9 8.7 106.3 9.8 105.3 10.5 104.8 11.5 104.8 12.7 104.8 13.8 105.3 14.8 106.2 15.6 107.4 16.6 110.3 17.7 115 18.8 119.6 19.9 123.1 21 125.3 22.2 127.5 23.4 129.3 25 130.5 27 131.7 29 132.4 31.5 132.4 34.5 132.4 37.2 131.6 39.7 130.1 42.1 128.6 44.5 126.5 46.2 123.7 47.4 120.9 48.6 117.5 49.1 113.4 49.1 107.4 49.1 102.9 47.7 99.7 45 96.4 42 94.5 38 93.8 32.7z"></path><polygon points="139.9 48.1 139.9 .9 149.4 .9 149.4 48.1"></polygon><polygon points="158.6 48.1 158.6 .9 167.9 .9 187.2 32.4 187.2 .9 196 .9 196 48.1 186.4 48.1 167.4 17.3 167.4 48.1"></polygon><polygon points="206.1 48.1 206.1 .9 241.1 .9 241.1 8.9 215.6 8.9 215.6 19.4 239.3 19.4 239.3 27.3 215.6 27.3 215.6 40.1 242 40.1 242 48 206.1 48"></polygon><path d="M247.6 32.7L256.9 31.8C257.5 34.9 258.6 37.2 260.3 38.7 262 40.2 264.3 40.9 267.2 40.9 270.3 40.9 272.6 40.3 274.1 39 275.7 37.7 276.4 36.2 276.4 34.4 276.4 33.3 276.1 32.3 275.4 31.6 274.7 30.8 273.6 30.1 272 29.6 270.9 29.2 268.3 28.5 264.4 27.5 259.3 26.2 255.7 24.7 253.7 22.8 250.8 20.2 249.4 17 249.4 13.3 249.4 10.9 250.1 8.7 251.4 6.6 252.8 4.5 254.7 2.9 257.3 1.8 259.9.7 263 .2 266.6.2 272.5.2 277 1.5 280 4.1 283 6.7 284.6 10.2 284.7 14.5L275.2 14.9C274.8 12.5 273.9 10.7 272.6 9.7 271.3 8.6 269.2 8.1 266.6 8.1 263.8 8.1 261.7 8.7 260.1 9.8 259.1 10.5 258.6 11.5 258.6 12.7 258.6 13.8 259.1 14.8 260 15.6 261.2 16.6 264.1 17.7 268.8 18.8 273.5 19.9 276.9 21 279.1 22.2 281.3 23.4 283.1 25 284.3 27 285.5 29 286.2 31.5 286.2 34.5 286.2 37.2 285.4 39.7 283.9 42.1 282.4 44.5 280.3 46.2 277.5 47.4 274.7 48.6 271.3 49.1 267.2 49.1 261.2 49.1 256.7 47.7 253.5 45 250.2 42 248.3 38 247.6 32.7zM291.6 32.7L300.9 31.8C301.5 34.9 302.6 37.2 304.3 38.7 306 40.2 308.3 40.9 311.2 40.9 314.3 40.9 316.6 40.3 318.1 39 319.7 37.7 320.4 36.2 320.4 34.4 320.4 33.3 320.1 32.3 319.4 31.6 318.7 30.8 317.6 30.1 316 29.6 314.9 29.2 312.3 28.5 308.4 27.5 303.3 26.2 299.7 24.7 297.7 22.8 294.8 20.2 293.4 17 293.4 13.3 293.4 10.9 294.1 8.7 295.4 6.6 296.8 4.5 298.7 2.9 301.3 1.8 303.9.7 307 .2 310.6.2 316.5.2 321 1.5 324 4.1 327 6.7 328.6 10.2 328.7 14.5L319.2 14.9C318.8 12.5 317.9 10.7 316.6 9.7 315.3 8.6 313.2 8.1 310.6 8.1 307.8 8.1 305.7 8.7 304.1 9.8 303.1 10.5 302.6 11.5 302.6 12.7 302.6 13.8 303.1 14.8 304 15.6 305.2 16.6 308.1 17.7 312.8 18.8 317.4 19.9 320.9 21 323.1 22.2 325.3 23.4 327.1 25 328.3 27 329.5 29 330.2 31.5 330.2 34.5 330.2 37.2 329.4 39.7 327.9 42.1 326.4 44.5 324.3 46.2 321.5 47.4 318.7 48.6 315.3 49.1 311.2 49.1 305.2 49.1 300.7 47.7 297.5 45 294.1 42 292.2 38 291.6 32.7zM356.2.9L365.7.9 365.7 26.4C365.7 30.5 365.8 33.1 366.1 34.3 366.5 36.2 367.5 37.8 369 38.9 370.5 40 372.6 40.7 375.3 40.7 378 40.7 380 40.1 381.4 39 382.8 37.9 383.6 36.5 383.9 34.9 384.2 33.3 384.3 30.6 384.3 26.9L384.3.8 393.8.8 393.8 25.6C393.8 31.3 393.5 35.3 393 37.6 392.5 39.9 391.5 41.9 390.2 43.5 388.8 45.1 387 46.4 384.6 47.3 382.2 48.2 379.3 48.7 375.5 48.7 371 48.7 367.6 48.2 365.3 47.1 363 46.1 361.1 44.7 359.8 43 358.4 41.3 357.6 39.6 357.1 37.8 356.5 35.1 356.2 31.1 356.2 25.8L356.2.9 356.2.9z"></path><polygon points="404 48.1 404 .9 413.3 .9 432.6 32.4 432.6 .9 441.4 .9 441.4 48.1 431.8 48.1 412.8 17.3 412.8 48.1"></polygon><polygon points="462.1 48.1 462.1 8.9 448.1 8.9 448.1 .9 485.6 .9 485.6 8.9 471.6 8.9 471.6 48.1"></polygon><polygon points="491.7 48.1 491.7 .9 526.7 .9 526.7 8.9 501.2 8.9 501.2 19.4 524.9 19.4 524.9 27.3 501.2 27.3 501.2 40.1 527.6 40.1 527.6 48 491.7 48"></polygon><path d="M535.7 48.1L535.7.9 555.7.9C560.7.9 564.4 1.3 566.7 2.2 569 3 570.8 4.6 572.2 6.7 573.6 8.9 574.3 11.3 574.3 14.1 574.3 17.6 573.3 20.6 571.2 22.9 569.1 25.2 566 26.7 561.9 27.3 564 28.5 565.7 29.8 567 31.3 568.3 32.7 570.1 35.3 572.4 39L578.2 48.2 566.8 48.2 559.9 37.9C557.5 34.2 555.8 31.9 554.9 31 554 30 553 29.4 552 29 551 28.6 549.4 28.5 547.2 28.5L545.3 28.5 545.3 48.2 535.7 48.2 535.7 48.1zM545.2 20.9L552.2 20.9C556.8 20.9 559.6 20.7 560.8 20.3 561.9 19.9 562.8 19.2 563.5 18.3 564.1 17.4 564.5 16.2 564.5 14.8 564.5 13.2 564.1 11.9 563.2 11 562.4 10 561.2 9.4 559.6 9.1 558.8 9 556.5 8.9 552.6 8.9L545.2 8.9 545.2 20.9 545.2 20.9zM599.1 32.7L608.4 31.8C609 34.9 610.1 37.2 611.8 38.7 613.5 40.2 615.8 40.9 618.7 40.9 621.8 40.9 624.1 40.3 625.6 39 627.2 37.7 627.9 36.2 627.9 34.4 627.9 33.3 627.6 32.3 626.9 31.6 626.2 30.8 625.1 30.1 623.5 29.6 622.4 29.2 619.8 28.5 615.9 27.5 610.8 26.2 607.2 24.7 605.2 22.8 602.3 20.2 600.9 17 600.9 13.3 600.9 10.9 601.6 8.7 602.9 6.6 604.3 4.5 606.2 2.9 608.8 1.8 611.4.7 614.5.2 618.1.2 624 .2 628.5 1.5 631.5 4.1 634.5 6.7 636.1 10.2 636.2 14.5L626.7 14.9C626.3 12.5 625.4 10.7 624.1 9.7 622.8 8.7 620.7 8.1 618.1 8.1 615.3 8.1 613.2 8.7 611.6 9.8 610.6 10.5 610.1 11.5 610.1 12.7 610.1 13.8 610.6 14.8 611.5 15.6 612.7 16.6 615.6 17.7 620.3 18.8 624.9 19.9 628.4 21 630.6 22.2 632.8 23.4 634.6 25 635.8 27 637.1 29 637.7 31.5 637.7 34.5 637.7 37.2 636.9 39.7 635.4 42.1 633.9 44.5 631.8 46.2 629 47.4 626.2 48.6 622.8 49.1 618.7 49.1 612.7 49.1 608.2 47.7 605 45 601.7 42 599.8 38 599.1 32.7zM645.5 48.1L645.5.9 660.8.9C666.6.9 670.4 1.1 672.1 1.6 674.8 2.3 677.1 3.8 678.9 6.2 680.7 8.6 681.6 11.6 681.6 15.4 681.6 18.3 681.1 20.7 680 22.7 678.9 24.7 677.6 26.2 676 27.3 674.4 28.4 672.7 29.2 671.1 29.5 668.8 30 665.5 30.2 661.2 30.2L655 30.2 655 48 645.5 48 645.5 48.1zM655 8.9L655 22.3 660.2 22.3C664 22.3 666.5 22.1 667.7 21.6 668.9 21.1 670 20.3 670.7 19.3 671.4 18.2 671.8 17 671.8 15.6 671.8 13.9 671.3 12.5 670.3 11.4 669.3 10.3 668 9.6 666.5 9.3 665.4 9.1 663.1 9 659.6 9L655 9 655 8.9zM727.1 48.1L716.7 48.1 712.6 37.4 693.7 37.4 689.8 48.1 679.7 48.1 698.1.9 708.2.9 727.1 48.1zM709.6 29.4L703.1 11.9 696.7 29.4 709.6 29.4z"></path><polygon points="732.3 48.1 732.3 .9 741.6 .9 760.9 32.4 760.9 .9 769.7 .9 769.7 48.1 760.1 48.1 741.1 17.3 741.1 48.1"></polygon><polygon points="779.9 48.1 779.9 .9 789.2 .9 808.5 32.4 808.5 .9 817.3 .9 817.3 48.1 807.7 48.1 788.7 17.3 788.7 48.1"></polygon><path d="M827.3,0.9 L836.8,0.9 L836.8,26.4 C836.8,30.5 836.9,33.1 837.2,34.3 C837.6,36.2 838.6,37.8 840.1,38.9 C841.6,40.1 843.7,40.7 846.4,40.7 C849.1,40.7 851.1,40.1 852.5,39 C853.9,37.9 854.7,36.5 855,34.9 C855.3,33.3 855.4,30.6 855.4,26.9 L855.4,0.8 L864.9,0.8 L864.9,25.6 C864.9,31.3 864.6,35.3 864.1,37.6 C863.6,39.9 862.6,41.9 861.3,43.5 C860,45.1 858.1,46.4 855.7,47.3 C853.3,48.2 850.4,48.7 846.6,48.7 C842.1,48.7 838.7,48.2 836.4,47.1 C834.1,46.1 832.2,44.7 830.9,43 C829.5,41.3 828.7,39.6 828.2,37.8 C827.6,35.1 827.3,31.1 827.3,25.8 L827.3,0.9 L827.3,0.9 Z"></path><polygon points="875 48.1 875 .9 884.3 .9 903.6 32.4 903.6 .9 912.4 .9 912.4 48.1 902.8 48.1 883.8 17.3 883.8 48.1"></polygon><path d="M944.5,30.8 L944.5,22.9 L965,22.9 L965,41.7 C963,43.6 960.1,45.3 956.3,46.8 C952.5,48.3 948.7,49 944.8,49 C939.9,49 935.6,48 931.9,45.9 C928.2,43.8 925.5,40.9 923.6,37 C921.8,33.1 920.8,29 920.8,24.4 C920.8,19.5 921.8,15.1 923.9,11.3 C926,7.5 929,4.6 932.9,2.5 C935.9,0.9 939.7,0.2 944.2,0.2 C950.1,0.2 954.6,1.4 957.9,3.9 C961.2,6.4 963.3,9.8 964.3,14.1 L954.8,15.9 C954.1,13.6 952.9,11.8 951.1,10.4 C949.3,9 947,8.4 944.2,8.4 C940,8.4 936.7,9.7 934.3,12.4 C931.8,15 930.6,19 930.6,24.1 C930.6,29.7 931.8,33.9 934.3,36.7 C936.8,39.5 940,40.9 944.1,40.9 C946.1,40.9 948.1,40.5 950.1,39.7 C952.1,38.9 953.8,38 955.3,36.9 L955.3,30.9 L944.5,30.9 L944.5,30.8 Z"></path></g><path fill="#000000" fill-rule="nonzero" d="M299.1,97.4 C293.5,83.3 283.2,71.2 270.1,63.6 C255.5,55.1 238.4,52.1 221.6,52.2 L206,93.4 C214.2,89.5 223.9,89.3 232.5,91.9 C240.9,94.5 247.8,101.1 251,109.1 C255.8,120.7 255.4,133.5 254.8,145.7 C253.7,155.7 252.1,166.8 244.6,174.2 C237.5,181.6 226.6,183.8 216.7,182.7 C207.3,182 198.3,176.5 193.5,168.3 C189.1,160.6 187.7,151.6 187.3,142.8 L164.4,203.5 C169.4,207.6 174.9,210.9 180.8,213.4 C194.9,219.2 210.5,220.7 225.6,220.5 C241.1,220.2 257.1,217.3 270.4,209.1 C283.3,201.4 293.6,189.3 299.1,175.3 C304,162.7 305.7,149.1 305.6,135.6 C305.8,122.8 304,109.6 299.1,97.4 Z"></path></g></svg>